<?xml version="1.0" encoding="iso-8859-1"?>
<!-- Uploaded to: SVG Repo, www.svgrepo.com, Generator: SVG Repo Mixer Tools -->
<svg fill="#000000" version="1.1" id="Capa_1" xmlns="http://www.w3.org/2000/svg" xmlns:xlink="http://www.w3.org/1999/xlink"
	 viewBox="0 0 64 64" xml:space="preserve">
<g>
	<g id="thinking-processing-planning-mind-mental_1_">
		<path d="M50.995,41.1L53,21C53,9.42,43.579,0,32,0S11,9.42,11.005,21.1l2,20c0.019,0.181,0.086,0.354,0.195,0.5l12,16
			c0.188,0.252,0.485,0.4,0.8,0.4h12c0.314,0,0.611-0.148,0.8-0.4l12-16C50.909,41.454,50.977,41.281,50.995,41.1z M32,40
			c-1.103,0-2-0.897-2-2s0.897-2,2-2s2,0.897,2,2S33.103,40,32,40z M37.5,56H37v-8.567l7.684-7.204C44.886,40.041,45,39.776,45,39.5
			v-2.642c1.721-0.447,3-2,3-3.858c0-2.206-1.794-4-4-4s-4,1.794-4,4c0,1.858,1.279,3.411,3,3.858v2.209l-7.684,7.204
			C35.114,46.459,35,46.724,35,47v9h-2V41.858c1.721-0.447,3-2,3-3.858c0-2.206-1.794-4-4-4s-4,1.794-4,4
			c0,1.858,1.279,3.411,3,3.858V56h-2v-9c0-0.276-0.114-0.541-0.316-0.729L21,39.067v-2.209c1.721-0.447,3-2,3-3.858
			c0-2.206-1.794-4-4-4s-4,1.794-4,4c0,1.858,1.279,3.411,3,3.858V39.5c0,0.276,0.114,0.541,0.316,0.729L27,47.433V56h-0.5
			L14.967,40.623L13,21c0-10.477,8.523-19,19-19s19,8.523,19.005,18.9l-1.973,19.723L37.5,56z M44,35c-1.103,0-2-0.897-2-2
			s0.897-2,2-2s2,0.897,2,2S45.103,35,44,35z M20,35c-1.103,0-2-0.897-2-2s0.897-2,2-2s2,0.897,2,2S21.103,35,20,35z"/>
		<path d="M0.629,62.071C0.249,62.224,0,62.591,0,63v1h2v-0.323l19.371-7.749l-0.742-1.857L0.629,62.071z"/>
		<path d="M63.371,62.071l-20-8l-0.742,1.857L62,63.677V64h2v-1C64,62.591,63.751,62.224,63.371,62.071z"/>
		<path d="M44.738,14.412C44.91,13.964,45,13.486,45,13c0-2.206-1.794-4-4-4c0-2.206-1.794-4-4-4c-0.666,0-1.32,0.171-1.9,0.488
			C34.354,4.567,33.219,4,32,4s-2.354,0.567-3.1,1.488C28.32,5.171,27.666,5,27,5c-2.206,0-4,1.794-4,4c-2.206,0-4,1.794-4,4
			c0,0.486,0.09,0.964,0.262,1.412C17.92,15.062,17,16.436,17,18c0,2.206,1.794,4,4,4h1v-2h-1c-1.103,0-2-0.897-2-2
			c0-1.04,0.819-1.91,1.864-1.982c0.384-0.026,0.718-0.27,0.86-0.627s0.067-0.764-0.192-1.047C21.189,13.97,21,13.493,21,13
			c0-1.396,1.507-2.461,2.874-1.787c0.385,0.188,0.846,0.113,1.149-0.19c0.303-0.302,0.379-0.764,0.19-1.148
			C25.072,9.587,25,9.292,25,9c0-1.103,0.897-2,2-2c0.556,0,1.074,0.229,1.461,0.647c0.237,0.255,0.589,0.369,0.93,0.3
			c0.341-0.068,0.622-0.309,0.742-0.635C30.422,6.527,31.172,6,32,6s1.578,0.527,1.867,1.312c0.12,0.326,0.401,0.567,0.742,0.635
			c0.342,0.069,0.693-0.045,0.93-0.3C35.926,7.229,36.444,7,37,7c1.103,0,2,0.897,2,2c0,0.292-0.072,0.587-0.214,0.875
			c-0.188,0.384-0.112,0.846,0.19,1.148c0.305,0.304,0.768,0.379,1.149,0.19C41.493,10.539,43,11.604,43,13
			c0,0.493-0.189,0.97-0.532,1.344c-0.26,0.283-0.335,0.69-0.192,1.047s0.477,0.601,0.86,0.627C44.181,16.09,45,16.96,45,18
			c0,1.103-0.897,2-2,2h-1v2h1c2.206,0,4-1.794,4-4C47,16.436,46.08,15.062,44.738,14.412z"/>
		<rect x="26" y="20" width="12" height="2"/>
		<path d="M36.501,13.205l-1.002,1.731C37.658,16.185,39,18.508,39,21c0,3.261-2.246,6.001-5.269,6.775l1.164-2.327l-1.789-0.895
			l-2,4c-0.192,0.385-0.117,0.85,0.188,1.154l3,3l1.414-1.414l-1.562-1.562C38.074,28.765,41,25.222,41,21
			C41,17.797,39.276,14.81,36.501,13.205z"/>
		<path d="M25,21c0-3.261,2.246-6.001,5.269-6.775l-1.164,2.327l1.789,0.895l2-4c0.192-0.385,0.117-0.85-0.188-1.154l-3-3
			l-1.414,1.414l1.562,1.562C25.926,13.235,23,16.778,23,21c0,3.205,1.725,6.192,4.502,7.797l1-1.731C26.342,25.817,25,23.493,25,21
			z"/>
	</g>
	<g id="Layer_1_30_">
	</g>
</g>
</svg>